<svg width="36" height="36" fill="none" xmlns="http://www.w3.org/2000/svg"><path d="M.806 6.883A6.562 6.562 0 017.369.321h21.875a6.562 6.562 0 016.562 6.562v21.875a6.562 6.562 0 01-6.562 6.563H7.369a6.562 6.562 0 01-6.563-6.563V6.883z" fill="#78BD20"/><path d="M29.16 9.696c.524-2.875-.283-4.875-3.593-4.875H15.275l-.969 5.042h8.759c.524 0 .686.291.605.916l-1.13 6h-5.449l.808-4.166-12.593 6.25h9.364l-.807 4.166 8.273-4.083-1.09 5.917c-.16.583-.443.875-1.09.875H11.28l-.929 5.083h10.332c3.27 0 4.884-2 5.368-4.875l3.108-16.25z" fill="#000"/></svg>