<svg width="35" height="35" fill="none" xmlns="http://www.w3.org/2000/svg"><path d="M34.964 17.321c0 9.455-7.67 17.157-17.157 17.157-9.488 0-17.158-7.67-17.158-17.157S8.32.164 17.806.164c9.488 0 17.158 7.703 17.158 17.157z" fill="#ED1D24"/><path d="M28.153 24.296a1.256 1.256 0 11-1.256-1.256c.727 0 1.256.562 1.256 1.256zm-15.47.694c-1.323-1.389-.298-4.066-.066-6.314-.298.297-3.108 6.876-5.686 6.876h-.133c-2.347-.232-2.05-3.471-1.322-5.422h3.769c-1.157 3.207.43 1.885 1.52-.132 2.182-4.43 2.215-4.529 4.595-11.207h4.166c-1.224 3.802-2.281 7.207-2.777 11.141 0 .132.066.298.231.231.86-.132 5.52-10.644 5.95-11.372h4.166s-4.43 12.232-3.703 13.389c.364.661.86-.595 1.323-1.091l.66.661c-1.222 1.356-2.61 3.835-4.561 3.835-.166 0-.298-.033-.463-.033a1.69 1.69 0 01-.793-.43c-2.248-1.95 1.818-9.223 1.388-9.686-.132 0-.264.364-.496.86-1.223 2.545-4.066 9.289-6.413 9.289-.397-.033-.959-.165-1.355-.595z" fill="#fff"/></svg>